<svg data-v-29081953="" xmlns="http://www.w3.org/2000/svg" viewBox="0 0 300 300"><!----><defs data-v-29081953=""><!----></defs><rect data-v-29081953="" fill="#FFFFFF" x="0" y="0" width="300px" height="300px" class="logo-background-square"></rect><defs data-v-29081953=""><!----></defs><g data-v-29081953="" id="56ee0841-e24a-41d8-a20d-214d754c8e9b" fill="#FFFFFF" transform="matrix(2.7884380454889044,0,0,2.7884380454889044,96.70906081965373,126.57712015196702)"><path d="M3.04 5.18C3.11 4.55 3.75 4.30 4.66 4.47L4.66 3.12C4.41 3.07 4.12 3.02 3.81 3.02C2.04 3.02 1.22 3.77 1.11 5.03C1.08 5.28 1.08 5.63 1.08 5.88L1.08 6.19L0.28 6.19L0.28 7.46L1.08 7.46L1.08 13.58L3.01 13.58L3.01 7.46L4.54 7.46L4.54 6.19L3.01 6.19L3.01 5.82C3.01 5.63 3.01 5.38 3.04 5.18ZM8.97 5.94C6.50 5.94 5.11 7.59 5.11 9.86C5.11 12.11 6.50 13.78 8.97 13.78C11.45 13.78 12.84 12.11 12.84 9.86C12.84 7.59 11.45 5.94 8.97 5.94ZM8.97 12.42C7.81 12.42 7.11 11.45 7.11 9.86C7.11 8.25 7.81 7.29 8.97 7.29C10.14 7.29 10.84 8.25 10.84 9.86C10.84 11.45 10.14 12.42 8.97 12.42ZM17.32 5.94C15.27 5.94 13.59 7.36 13.59 9.91C13.59 12.49 15.12 13.78 17.15 13.78C19.01 13.78 20.38 12.84 20.71 11.00L18.77 11.00C18.58 11.94 18.02 12.42 17.26 12.42C16.30 12.42 15.60 11.63 15.60 9.79C15.60 8.09 16.30 7.29 17.28 7.29C18.07 7.29 18.63 7.74 18.82 8.82L20.72 8.82C20.58 7.17 19.33 5.94 17.32 5.94ZM28.83 6.13L26.89 6.13L26.89 9.93C26.89 11.61 26.22 12.40 25.26 12.40C24.36 12.40 23.91 11.91 23.81 11.14C23.77 10.77 23.76 10.36 23.76 10.12L23.76 6.13L21.83 6.13L21.83 10.53C21.83 11.13 21.84 11.51 21.90 11.89C22.06 12.91 22.99 13.78 24.53 13.78C25.24 13.78 25.77 13.64 26.32 13.27L26.89 12.32L26.89 13.58L28.83 13.58ZM33.26 5.94C31.49 5.94 30.31 6.80 30.31 8.23C30.31 9.52 31.26 10.12 32.65 10.47C33.94 10.79 34.43 11.12 34.43 11.69C34.43 12.24 33.95 12.50 33.33 12.50C32.66 12.50 32.10 12.12 31.95 11.31L30.02 11.31C30.23 12.99 31.50 13.78 33.31 13.78C35.01 13.78 36.37 13.05 36.37 11.55C36.37 10.18 35.48 9.56 33.95 9.17C32.72 8.86 32.26 8.57 32.26 8.01C32.26 7.55 32.56 7.21 33.14 7.21C33.78 7.21 34.16 7.60 34.29 8.29L36.22 8.29C36.05 6.93 35.04 5.94 33.26 5.94ZM44.51 8.02C44.35 6.72 43.44 5.94 41.86 5.94C41.15 5.94 40.60 6.08 40.07 6.45L39.49 7.34L39.49 3.22L37.56 3.22L37.56 13.58L39.49 13.58L39.49 10.18C39.49 8.11 40.24 7.31 41.17 7.29C42.11 7.29 42.55 7.83 42.60 8.61C42.63 8.99 42.63 9.34 42.63 9.65L42.63 13.58L44.56 13.58L44.56 9.38C44.56 8.78 44.55 8.40 44.51 8.02ZM47.22 3.36C46.59 3.36 46.16 3.78 46.16 4.38C46.16 5.00 46.59 5.40 47.22 5.40C47.85 5.40 48.29 5.00 48.29 4.38C48.29 3.78 47.85 3.36 47.22 3.36ZM48.19 13.58L48.19 6.13L46.26 6.13L46.26 13.58ZM52.14 5.18C52.21 4.55 52.85 4.30 53.76 4.47L53.76 3.12C53.51 3.07 53.21 3.02 52.91 3.02C51.14 3.02 50.32 3.77 50.20 5.03C50.18 5.28 50.18 5.63 50.18 5.88L50.18 6.19L49.38 6.19L49.38 7.46L50.18 7.46L50.18 13.58L52.11 13.58L52.11 7.46L53.63 7.46L53.63 6.19L52.11 6.19L52.11 5.82C52.11 5.63 52.11 5.38 52.14 5.18ZM57.02 7.46L58.56 7.46L58.56 6.19L57.02 6.19L57.02 4.35L55.09 4.35L55.09 6.19L54.00 6.19L54.00 7.46L55.09 7.46L55.09 11.13C55.09 11.55 55.09 11.87 55.12 12.21C55.20 13.26 55.72 13.73 57.16 13.73C57.60 13.73 58.00 13.71 58.44 13.64L58.44 12.38C57.36 12.46 57.09 12.29 57.04 11.56C57.02 11.37 57.02 11.16 57.02 10.91Z"></path></g><defs data-v-29081953=""><!----></defs><g data-v-29081953="" id="7060b414-ea94-467d-b454-8e9e4ce927fb" stroke="none" fill="#41E296" transform="matrix(0.5749525078168638,0,0,0.5749525078168638,33.31905192496613,120.59787440043506)"><path d="M57.353 38.271l4.946-5.831c-3.927-2.733-8.437-3.274-13.571-3.274-13.4 0-22.875 6.883-24.481 22.455-1.373 13.34 12.101 25.93 26.272 24.662 13.355-1.199 22.786-11.453 22.786-24.865 0-4.703-1.34-7.766-3.684-11.481l-5.528 5.665c1.048 2.166.83 4.789.811 6.605-.1 9.223-6.679 16.457-15.918 16.457-9.223 0-17.317-7.619-17.317-16.844 0-9.224 8.42-15.037 17.643-15.037 2.971 0 5.423.023 7.834 1.378.075.036.137.073.207.11z"></path><path d="M46.875 48.752l4.706-4.703c-.087-.025-.174-.049-.249-.074h-.015a9.287 9.287 0 0 0-2.494-.333c-5.298 0-10.873 4.31-10.873 9.606S43.348 63.92 48.644 63.92c5.297 0 10.426-5.264 10.426-10.562 0-.615-.702-1.326-.813-1.918l-4.767 4.764a4.977 4.977 0 0 1-7.032 0 4.976 4.976 0 0 1 0-7.043l.417-.409z"></path><path d="M76.929 39.49c1.919 4.029 3.356 8.281 2.988 13.021-1.334 17.288-13.047 30.137-30.074 31.124-17.449 1.008-31.79-13.809-31.79-30.867S31.61 23.207 48.982 21.842c5.131-.402 10.023 1.269 14.299 3.521l4.013-5.898c-5.43-3.005-11.724-5.521-18.312-4.718C25.864 17.561 11.62 31.804 11.62 52.768c0 20.961 16.44 38.283 37.688 37.482 20.949-.789 36.427-14.436 37.682-38.43.456-8.726-1.49-11.158-4.149-16.346l-5.912 4.016z"></path><path d="M64.391 27.018l2.595 4.302-13.585 13.491-5.256 5.26.011.014a3.075 3.075 0 0 0 0 4.359c1.567 1.551 3.015 1.307 4.556-.209l5.101-5.102 5.308-5.307 5.446-5.455.713-.713 1.948-1.948 4.383 2.267L89 28.09l-11.893-4.391L74.623 12l-5.715 8.389-4.013 5.875-.504.754z"></path></g><!----></svg>